HIERARCHY
ROOT Hips
{
  OFFSET 51.2403 100.628 15.7654
  CHANNELS 6 Xposition Yposition Zposition Zrotation Xrotation Yrotation
  JOINT spine
  {
    OFFSET 0 8.81704 0.507024
    CHANNELS 3 Zrotation Xrotation Yrotation
    JOINT spine1
    {
      OFFSET 0 10.7766 0
      CHANNELS 3 Zrotation Xrotation Yrotation
      JOINT spine2
      {
        OFFSET 0 10.3259 0
        CHANNELS 3 Zrotation Xrotation Yrotation
        JOINT Neck
        {
          OFFSET 0 26.511 1.26395
          CHANNELS 3 Zrotation Xrotation Yrotation
          JOINT Head
          {
            OFFSET 0 8.00966 0
            CHANNELS 3 Zrotation Xrotation Yrotation
            End Site
            {
              OFFSET 0 19.3879 -6.39386
            }
          }
        }
        JOINT RightShoulder
        {
          OFFSET -4.34795 11.1512 -0.605422
          CHANNELS 3 Zrotation Xrotation Yrotation
          JOINT RightArm
          {
            OFFSET 0 14.6258 0
            CHANNELS 3 Zrotation Xrotation Yrotation
            JOINT RightArmRoll
            {
              OFFSET 0 7.3834 0
              CHANNELS 3 Zrotation Xrotation Yrotation
              JOINT RightForeArm
              {
                OFFSET 0 21.5052 0
                CHANNELS 3 Zrotation Xrotation Yrotation
                JOINT RightForeArmRoll
                {
                  OFFSET 0 8.28532 0
                  CHANNELS 3 Zrotation Xrotation Yrotation
                  JOINT RightHand
                  {
                    OFFSET 0 16.6268 0
                    CHANNELS 3 Zrotation Xrotation Yrotation
                    End Site
                    {
                      OFFSET 0 0 0
                    }
                  }
                }
              }
            }
          }
        }
        JOINT LeftShoulder
        {
          OFFSET 4.34795 11.1512 -0.605422
          CHANNELS 3 Zrotation Xrotation Yrotation
          JOINT LeftArm
          {
            OFFSET 0 14.6258 0
            CHANNELS 3 Zrotation Xrotation Yrotation
            JOINT LeftArmRoll
            {
              OFFSET 0 7.3834 0
              CHANNELS 3 Zrotation Xrotation Yrotation
              JOINT LeftForeArm
              {
                OFFSET 0 21.5052 0
                CHANNELS 3 Zrotation Xrotation Yrotation
                JOINT LeftForeArmRoll
                {
                  OFFSET 0 8.28532 0
                  CHANNELS 3 Zrotation Xrotation Yrotation
                  JOINT LeftHand
                  {
                    OFFSET 0 16.6268 0
                    CHANNELS 3 Zrotation Xrotation Yrotation
                    End Site
                    {
                      OFFSET 0 0 0
                    }
                  }
                }
              }
            }
          }
        }
      }
    }
  }
  JOINT RightUpLeg
  {
    OFFSET -7.8151 -1.43309 -1.20217
    CHANNELS 3 Zrotation Xrotation Yrotation
    JOINT RightUpLegRoll
    {
      OFFSET 0 19.4959 0
      CHANNELS 3 Zrotation Xrotation Yrotation
      JOINT RightLeg
      {
        OFFSET 0 -24.1427 0
        CHANNELS 3 Zrotation Xrotation Yrotation
        JOINT RightLegRoll
        {
          OFFSET 0 24.2217 0
          CHANNELS 3 Zrotation Xrotation Yrotation
          JOINT RightFoot
          {
            OFFSET 0 20.1605 0
            CHANNELS 3 Zrotation Xrotation Yrotation
            JOINT RightToeBase
            {
              OFFSET 0 16.8532 0
              CHANNELS 3 Zrotation Xrotation Yrotation
              End Site
              {
                OFFSET 0.00714343 8.16187 -0.94078
              }
            }
          }
        }
      }
    }
  }
  JOINT LeftUpLeg
  {
    OFFSET 7.8151 -1.43309 -1.20217
    CHANNELS 3 Zrotation Xrotation Yrotation
    JOINT LeftUpLegRoll
    {
      OFFSET 0 19.496 0
      CHANNELS 3 Zrotation Xrotation Yrotation
      JOINT LeftLeg
      {
        OFFSET 0 24.1426 0
        CHANNELS 3 Zrotation Xrotation Yrotation
        JOINT LeftLegRoll
        {
          OFFSET 0 24.4456 0
          CHANNELS 3 Zrotation Xrotation Yrotation
          JOINT LeftFoot
          {
            OFFSET 0 19.9366 0
            CHANNELS 3 Zrotation Xrotation Yrotation
            JOINT LeftToeBase
            {
              OFFSET 0 16.8532 0
              CHANNELS 3 Zrotation Xrotation Yrotation
              End Site
              {
                OFFSET -0.0320138 8.16187 -0.94078
              }
            }
          }
        }
      }
    }
  }
}
MOTION
Frames: 12
Frame Time: 0.00208333
51.3492 100.636 16.1674 0.0375443 -4.72731 1.01823 0.0237961 -2.61493 -0.148809 0.0380319 -1.2271 -0.301267 0.0412262 0.417972 -0.30187 0.411677 22.8043 0.204355 -9.55602 -3.42887 -0.987466 68.012 -4.06384 -3.21562 120.561 26.4189 -59.0638 2.5081e-005 3.86157e-006 -3.8081e-007 -129.508 77.8715 115.571 -6.74573e-006 -1.39401e-006 -3.00141 8.02892 -4.95146 0.69769 -58.126 -3.90997 2.40057 -127.108 36.8799 49.4695 9.22074e-006 5.3975e-007 1.06483e-006 82.1558 87.2822 -75.1514 4.4387e-006 -5.71451e-006 3.00281 -8.02905 -4.95148 -0.697678 178.717 -4.58306 0.00624502 180 7.01529e-015 178.849 178.154 5.06576 179.754 1.13523e-006 -4.47681e-006 0.0381054 -18.2927 67.496 19.1325 8.15465 25.4999 -3.11974 -177.58 -3.45115 2.18409 4.54188e-006 -4.6773e-006 -1.17701 -2.14556 -8.78149 0.183294 7.01402e-008 2.85013e-007 -0.15162 19.8854 69.4525 -20.8212 -8.17059 25.7586 2.76828 
51.3286 100.637 16.1728 0.0342446 -4.72338 1.01907 0.0241858 -2.61478 -0.148892 0.0395051 -1.2268 -0.302523 0.0426475 0.418268 -0.303144 0.411178 22.8349 0.18467 -9.56947 -3.53072 -1.01734 68.0091 -4.08661 -3.22692 120.502 26.4413 -58.8599 2.5081e-005 3.86157e-006 -3.8081e-007 -129.667 77.8545 115.729 -6.74573e-006 -1.39401e-006 -3.00141 8.02892 -4.95146 0.69769 -58.122 -3.92013 2.40649 -126.948 36.8355 49.3037 9.22074e-006 5.3975e-007 1.06483e-006 82.6013 87.2591 -75.5803 4.4387e-006 -5.71451e-006 3.00281 -8.02905 -4.95148 -0.697678 178.724 -4.57935 0.000901269 180 7.01529e-015 178.849 178.157 5.06448 179.753 1.13523e-006 -4.47681e-006 0.0381054 -18.2941 67.4979 19.1341 8.15428 25.4945 -3.12706 -177.574 -3.44633 2.182 4.54188e-006 -4.6773e-006 -1.17709 -2.1447 -8.78094 0.183481 7.01402e-008 2.85013e-007 -0.151639 19.8847 69.4521 -20.8205 -8.17054 25.7579 2.76943 
51.336 100.638 16.1675 0.0308654 -4.71854 1.02016 0.0245195 -2.61501 -0.148964 0.0408525 -1.22726 -0.303785 0.0439578 0.417809 -0.304421 0.413985 22.8688 0.16399 -9.58553 -3.6342 -1.04758 68.0062 -4.11058 -3.23882 120.44 26.4662 -58.6547 2.5081e-005 3.86157e-006 -3.8081e-007 -129.83 77.8367 115.889 -6.74573e-006 -1.39401e-006 -3.0014 8.02892 -4.95146 0.69769 -58.1176 -3.9285 2.41125 -126.785 36.7886 49.1242 9.22074e-006 5.3975e-007 1.06483e-006 83.0605 87.2353 -76.0232 4.4387e-006 -5.71451e-006 3.00281 -8.02905 -4.95148 -0.697678 178.731 -4.57454 -0.00460885 180 7.01529e-015 178.849 178.16 5.06352 179.753 1.13523e-006 -4.47681e-006 0.0381054 -18.2957 67.4998 19.1358 8.15391 25.4891 -3.13451 -177.569 -3.44053 2.17992 4.54188e-006 -4.6773e-006 -1.17716 -2.14386 -8.7803 0.183666 7.01402e-008 2.85013e-007 -0.151657 19.884 69.4515 -20.8198 -8.17049 25.7572 2.77057 
51.346 100.638 16.1564 0.0274156 -4.71283 1.0215 0.0248176 -2.6156 -0.149019 0.0420965 -1.22845 -0.30502 0.0451844 0.416623 -0.305671 0.419342 22.9052 0.142542 -9.603 -3.738 -1.07792 68.0034 -4.13516 -3.25105 120.375 26.493 -58.4475 2.5081e-005 3.86157e-006 -3.8081e-007 -129.998 77.8171 116.055 -6.74573e-006 -1.39401e-006 -3.0014 8.02892 -4.95146 0.69769 -58.1128 -3.935 2.4148 -126.618 36.7402 48.9316 9.22074e-006 5.3975e-007 1.06483e-006 83.522 87.2115 -76.4693 4.4387e-006 -5.71451e-006 3.00281 -8.02905 -4.95148 -0.697678 178.738 -4.56866 -0.0102205 180 7.01529e-015 178.849 178.163 5.06279 179.753 1.13523e-006 -4.47681e-006 0.0381054 -18.2972 67.5018 19.1375 8.15353 25.4836 -3.14202 -177.563 -3.43374 2.17789 4.54188e-006 -4.6773e-006 -1.17721 -2.14306 -8.77964 0.183846 7.01402e-008 2.85013e-007 -0.151675 19.8832 69.4509 -20.8189 -8.17044 25.7565 2.77171 
51.3293 100.629 16.1627 0.0239041 -4.70629 1.02311 0.0251007 -2.61654 -0.149049 0.0432593 -1.23033 -0.306195 0.0463548 0.414742 -0.306859 0.42649 22.9432 0.120551 -9.62065 -3.84083 -1.10813 68.0007 -4.15978 -3.26332 120.304 26.521 -58.2374 2.5081e-005 3.86157e-006 -3.8081e-007 -130.176 77.7945 116.229 -6.74573e-006 -1.39401e-006 -3.0014 8.02892 -4.95146 0.69769 -58.1074 -3.93956 2.41712 -126.45 36.6914 48.7261 9.22074e-006 5.3975e-007 1.06483e-006 83.9766 87.1884 -76.91 4.4387e-006 -5.71451e-006 3.00281 -8.02905 -4.95148 -0.697678 178.745 -4.56178 -0.0158689 180 7.01529e-015 178.849 178.166 5.06222 179.753 1.13523e-006 -4.47681e-006 0.0381054 -18.2988 67.5037 19.1392 8.15315 25.4781 -3.14954 -177.557 -3.42594 2.17593 4.54188e-006 -4.6773e-006 -1.17723 -2.14229 -8.77898 0.184021 7.01402e-008 2.85013e-007 -0.151693 19.8823 69.4502 -20.818 -8.17039 25.7557 2.77283 
51.3161 100.629 16.1612 0.0203399 -4.69893 1.025 0.0253895 -2.61781 -0.149047 0.0443632 -1.23287 -0.307276 0.0474962 0.412196 -0.307953 0.434667 22.9821 0.0982435 -9.63727 -3.94139 -1.13797 67.9983 -4.18388 -3.27534 120.23 26.5494 -58.0236 2.5081e-005 3.86157e-006 -3.8081e-007 -130.366 77.7676 116.413 -6.74573e-006 -1.39401e-006 -3.0014 8.02892 -4.95146 0.69769 -58.1016 -3.94212 2.41816 -126.28 36.6434 48.5082 9.22074e-006 5.3975e-007 1.06483e-006 84.4149 87.1668 -77.3365 4.4387e-006 -5.71451e-006 3.00281 -8.02905 -4.95148 -0.697678 178.752 -4.55393 -0.0214891 180 7.01529e-015 178.849 178.169 5.06178 179.753 1.13523e-006 -4.47681e-006 0.0381054 -18.3002 67.5055 19.1408 8.15278 25.4726 -3.157 -177.551 -3.41713 2.17407 4.54188e-006 -4.6773e-006 -1.17723 -2.14156 -8.77838 0.184188 7.01402e-008 2.85013e-007 -0.151711 19.8814 69.4494 -20.817 -8.17034 25.755 2.77394 
51.313 100.636 16.1587 0.016732 -4.6908 1.02718 0.0257046 -2.6194 -0.149006 0.0454303 -1.23606 -0.308231 0.0486362 0.409015 -0.308922 0.443111 23.0211 0.0758473 -9.65162 -4.03836 -1.1672 67.9963 -4.20688 -3.28685 120.149 26.5774 -57.8054 2.5081e-005 3.86157e-006 -3.8081e-007 -130.572 77.7354 116.608 -6.74573e-006 -1.39401e-006 -3.00139 8.02892 -4.95146 0.69769 -58.0953 -3.94261 2.41788 -126.109 36.5971 48.2782 9.22074e-006 5.3975e-007 1.06483e-006 84.8286 87.1475 -77.741 4.4387e-006 -5.71451e-006 3.00281 -8.02905 -4.95148 -0.697678 178.759 -4.54517 -0.0270164 180 7.01529e-015 178.849 178.172 5.06138 179.753 1.13523e-006 -4.47681e-006 0.0381054 -18.3015 67.5071 19.1422 8.15241 25.4673 -3.16433 -177.546 -3.40731 2.17233 4.54188e-006 -4.6773e-006 -1.1772 -2.14085 -8.77789 0.184346 7.01402e-008 2.85013e-007 -0.151728 19.8805 69.4486 -20.816 -8.17029 25.7543 2.77504 
51.311 100.634 16.1592 0.0130891 -4.68192 1.02967 0.0260665 -2.62129 -0.148919 0.0464831 -1.23984 -0.309027 0.049802 0.40523 -0.309732 0.451057 23.0594 0.0535905 -9.66247 -4.13046 -1.19558 67.9948 -4.22821 -3.29756 120.063 26.6045 -57.5819 2.5081e-005 3.86157e-006 -3.8081e-007 -130.795 77.6966 116.817 -6.74573e-006 -1.39401e-006 -3.00139 8.02892 -4.95146 0.69769 -58.0886 -3.94096 2.41624 -125.938 36.5537 48.0365 9.22074e-006 5.3975e-007 1.06483e-006 85.2096 87.1312 -78.1161 4.4387e-006 -5.71451e-006 3.00281 -8.02905 -4.95148 -0.697678 178.765 -4.53554 -0.032386 180 7.01529e-015 178.849 178.174 5.06097 179.753 1.13523e-006 -4.47681e-006 0.0381054 -18.3026 67.5085 19.1434 8.15205 25.4621 -3.17146 -177.54 -3.39647 2.17074 4.54188e-006 -4.6773e-006 -1.17712 -2.14018 -8.77753 0.184492 7.01402e-008 2.85013e-007 -0.151745 19.8796 69.4479 -20.8151 -8.17024 25.7535 2.7761 
51.3043 100.643 16.1558 0.00942016 -4.67232 1.03248 0.0264959 -2.62347 -0.14878 0.0475438 -1.2442 -0.30963 0.0510211 0.400871 -0.310351 0.457739 23.0961 0.031702 -9.66859 -4.21638 -1.22285 67.9939 -4.2473 -3.30718 119.971 26.6296 -57.3522 2.5081e-005 3.86157e-006 -3.8081e-007 -131.038 77.6502 117.042 -6.74573e-006 -1.39401e-006 -3.00139 8.02892 -4.95146 0.69769 -58.0815 -3.9371 2.4132 -125.768 36.5144 47.7834 9.22074e-006 5.3975e-007 1.06483e-006 85.5506 87.1187 -78.4551 4.4387e-006 -5.71451e-006 3.00281 -8.02905 -4.95148 -0.697678 178.772 -4.5251 -0.037533 180 7.01529e-015 178.849 178.176 5.06047 179.752 1.13523e-006 -4.47681e-006 0.0381054 -18.3034 67.5095 19.1443 8.1517 25.457 -3.17834 -177.535 -3.3846 2.16934 4.54188e-006 -4.6773e-006 -1.17701 -2.13955 -8.77737 0.184625 7.01402e-008 2.85013e-007 -0.151762 19.8788 69.4472 -20.8143 -8.17018 25.7528 2.77714 
51.3186 100.64 16.1425 0.00573403 -4.66205 1.03563 0.0270133 -2.62592 -0.148581 0.0486347 -1.2491 -0.310007 0.052321 0.395968 -0.310747 0.462388 23.1305 0.0104116 -9.66872 -4.29481 -1.24879 67.9938 -4.26357 -3.31544 119.872 26.6521 -57.1157 2.5081e-005 3.86157e-006 -3.8081e-007 -131.304 77.5948 117.284 -6.74573e-006 -1.39401e-006 -3.00138 8.02892 -4.95146 0.69769 -58.0739 -3.93096 2.40872 -125.598 36.4801 47.5192 9.22074e-006 5.3975e-007 1.06483e-006 85.8443 87.1108 -78.7512 4.4387e-006 -5.71451e-006 3.00281 -8.02905 -4.95148 -0.697678 178.778 -4.5139 -0.0423926 180 7.0153e-015 178.85 178.177 5.05983 179.752 1.13523e-006 -4.47681e-006 0.0381054 -18.3039 67.5101 19.1448 8.15138 25.4523 -3.18489 -177.53 -3.37169 2.16814 4.54188e-006 -4.6773e-006 -1.17685 -2.13895 -8.77743 0.184743 7.01402e-008 2.85013e-007 -0.151778 19.8781 69.4466 -20.8135 -8.17013 25.752 2.77814 
51.3146 100.64 16.1416 0.00188708 -4.65052 1.03936 0.0275914 -2.62896 -0.148312 0.0496858 -1.25517 -0.310221 0.0536635 0.389901 -0.31098 0.467546 23.1668 -0.0112398 -9.6652 -4.36905 -1.27406 67.9959 -4.27794 -3.32289 119.763 26.6722 -56.8761 2.5081e-005 3.86157e-006 -3.8081e-007 -131.589 77.5302 117.537 -6.74573e-006 -1.39401e-006 -3.00138 8.02892 -4.95146 0.69769 -58.066 -3.92084 2.40175 -125.425 36.4478 47.2359 9.22074e-006 5.3975e-007 1.06483e-006 86.1178 87.1065 -79.0312 4.4387e-006 -5.71451e-006 3.00281 -8.02905 -4.95148 -0.697678 178.784 -4.50127 -0.0471197 180 7.0153e-015 178.85 178.178 5.05917 179.752 1.13523e-006 -4.47681e-006 0.0381054 -18.3042 67.5104 19.1451 8.15106 25.4476 -3.19133 -177.524 -3.35706 2.16709 4.54188e-006 -4.6773e-006 -1.17663 -2.1384 -8.77779 0.184843 7.01401e-008 2.85013e-007 -0.151794 19.8775 69.446 -20.8129 -8.17008 25.7512 2.77912 
51.3172 100.644 16.1403 -0.00223693 -4.63726 1.04385 0.0281862 -2.63283 -0.147976 0.0506201 -1.26289 -0.310355 0.0549886 0.382181 -0.311132 0.475973 23.2087 -0.0342236 -9.66114 -4.44303 -1.29947 68.0011 -4.29174 -3.33028 119.643 26.6911 -56.6372 2.5081e-005 3.86157e-006 -3.8081e-007 -131.884 77.4573 117.794 -6.74573e-006 -1.39401e-006 -3.00138 8.02892 -4.95146 0.69769 -58.0578 -3.90555 2.39155 -125.248 36.4135 46.9272 9.22074e-006 5.3975e-007 1.06483e-006 86.4002 87.1045 -79.3229 4.4387e-006 -5.71451e-006 3.00281 -8.02905 -4.95148 -0.697678 178.79 -4.48667 -0.0519025 180 7.0153e-015 178.85 178.178 5.05867 179.753 1.13523e-006 -4.47681e-006 0.0381054 -18.3043 67.5106 19.1452 8.15073 25.4428 -3.19792 -177.519 -3.34022 2.16615 4.54188e-006 -4.6773e-006 -1.17636 -2.13788 -8.77844 0.184927 7.01402e-008 2.85013e-007 -0.15181 19.8769 69.4455 -20.8123 -8.17002 25.7504 2.78009 
